<svg width="20" height="20" viewBox="0 0 20 20" fill="none" xmlns="http://www.w3.org/2000/svg">
<mask id="path-1-inside-1_12101_15" fill="white">
<path d="M9.07088 0.644571C9.41462 -0.214858 10.5854 -0.214857 10.9291 0.644574L12.9579 5.71708C13.1029 6.0794 13.4306 6.32696 13.8067 6.35831L19.0727 6.79735C19.9649 6.87173 20.3267 8.02961 19.6469 8.63516L15.6348 12.2092C15.3482 12.4644 15.223 12.8651 15.3106 13.2466L16.5363 18.5905C16.744 19.4959 15.7969 20.2116 15.033 19.7264L10.5245 16.8627C10.2025 16.6581 9.7975 16.6581 9.47548 16.8627L4.96699 19.7264C4.20311 20.2116 3.25596 19.4959 3.46363 18.5905L4.68942 13.2466C4.77698 12.8651 4.65182 12.4644 4.36526 12.2092L0.353062 8.63516C-0.326718 8.02961 0.035068 6.87173 0.927291 6.79735L6.19336 6.35831C6.5695 6.32696 6.89716 6.0794 7.04207 5.71708L9.07088 0.644571Z"/>
</mask>
<path d="M9.07088 0.644571L7.2139 -0.0981508L7.2139 -0.0981486L9.07088 0.644571ZM10.9291 0.644574L9.07209 1.38722L9.07212 1.38729L10.9291 0.644574ZM12.9579 5.71708L11.1009 6.4598L11.1011 6.46019L12.9579 5.71708ZM13.8067 6.35831L13.6405 8.3514L13.6405 8.3514L13.8067 6.35831ZM19.0727 6.79735L18.9065 8.79043L18.9065 8.79043L19.0727 6.79735ZM19.6469 8.63516L18.3166 7.14174L18.3166 7.14176L19.6469 8.63516ZM15.6348 12.2092L16.965 13.7027L16.9651 13.7026L15.6348 12.2092ZM15.3106 13.2466L17.26 12.7995L17.2599 12.7991L15.3106 13.2466ZM16.5363 18.5905L14.5869 19.0376L14.5869 19.0377L16.5363 18.5905ZM15.033 19.7264L13.9607 21.4147L13.9608 21.4147L15.033 19.7264ZM10.5245 16.8627L9.45178 18.5507L9.45218 18.551L10.5245 16.8627ZM9.47548 16.8627L10.5478 18.551L10.5481 18.5507L9.47548 16.8627ZM4.96699 19.7264L6.03925 21.4147L6.03931 21.4147L4.96699 19.7264ZM3.46363 18.5905L1.51426 18.1434L1.51425 18.1434L3.46363 18.5905ZM4.68942 13.2466L2.74008 12.7993L2.74005 12.7995L4.68942 13.2466ZM4.36526 12.2092L5.69557 10.7157L5.69557 10.7157L4.36526 12.2092ZM0.353062 8.63516L-0.977258 10.1286L-0.977245 10.1286L0.353062 8.63516ZM0.927291 6.79735L1.09344 8.79043L1.09345 8.79043L0.927291 6.79735ZM6.19336 6.35831L6.0272 4.36523L6.0272 4.36523L6.19336 6.35831ZM7.04207 5.71708L5.18509 4.97436L5.18509 4.97437L7.04207 5.71708ZM10.9279 1.38729C10.6011 2.20414 9.39888 2.20435 9.07209 1.38722L12.7861 -0.0980717C11.7719 -2.63407 8.22809 -2.63386 7.2139 -0.0981508L10.9279 1.38729ZM9.07212 1.38729L11.1009 6.4598L14.8149 4.97437L12.7861 -0.0981427L9.07212 1.38729ZM11.1011 6.46019C11.5154 7.49535 12.4776 8.25444 13.6405 8.3514L13.9729 4.36523C14.3835 4.39947 14.6904 4.66345 14.8147 4.97398L11.1011 6.46019ZM13.6405 8.3514L18.9065 8.79043L19.2389 4.80426L13.9729 4.36523L13.6405 8.3514ZM18.9065 8.79043C18.4271 8.75046 18.1298 8.39993 18.0403 8.11352C17.952 7.83079 18.0007 7.42311 18.3166 7.14174L20.9772 10.1286C22.8708 8.44183 22.0126 5.0355 19.2389 4.80426L18.9065 8.79043ZM18.3166 7.14176L14.3045 10.7158L16.9651 13.7026L20.9772 10.1286L18.3166 7.14176ZM14.3046 10.7157C13.4593 11.4685 13.1145 12.6189 13.3613 13.6941L17.2599 12.7991C17.3315 13.1112 17.2371 13.4603 16.965 13.7027L14.3046 10.7157ZM13.3612 13.6937L14.5869 19.0376L18.4857 18.1434L17.26 12.7995L13.3612 13.6937ZM14.5869 19.0377C14.503 18.672 14.6632 18.2958 14.9433 18.0842C15.2321 17.866 15.7111 17.7878 16.1052 18.0381L13.9608 21.4147C16.4211 22.9773 19.0427 20.5717 18.4857 18.1433L14.5869 19.0377ZM16.1053 18.0382L11.5968 15.1745L9.45218 18.551L13.9607 21.4147L16.1053 18.0382ZM11.5972 15.1748C10.6206 14.5541 9.37943 14.5541 8.40281 15.1747L10.5481 18.5507C10.2156 18.7621 9.78444 18.7621 9.45178 18.5507L11.5972 15.1748ZM8.40316 15.1745L3.89467 18.0382L6.03931 21.4147L10.5478 18.551L8.40316 15.1745ZM3.89473 18.0382C4.28892 17.7878 4.76788 17.866 5.05668 18.0842C5.33666 18.2958 5.4969 18.6719 5.41301 19.0377L1.51425 18.1434C0.957252 20.5717 3.57898 22.9773 6.03925 21.4147L3.89473 18.0382ZM5.413 19.0377L6.63879 13.6938L2.74005 12.7995L1.51426 18.1434L5.413 19.0377ZM6.63876 13.6939C6.88542 12.619 6.54081 11.4687 5.69557 10.7157L3.03495 13.7026C2.76283 13.4602 2.66854 13.1111 2.74008 12.7993L6.63876 13.6939ZM5.69557 10.7157L1.68337 7.14174L-0.977245 10.1286L3.03495 13.7026L5.69557 10.7157ZM1.68338 7.14176C1.99925 7.42313 2.048 7.8308 1.95966 8.11353C1.87017 8.39995 1.57286 8.75047 1.09344 8.79043L0.76114 4.80426C-2.01268 5.0355 -2.87077 8.44182 -0.977258 10.1286L1.68338 7.14176ZM1.09345 8.79043L6.35952 8.3514L6.0272 4.36523L0.761128 4.80426L1.09345 8.79043ZM6.35952 8.3514C7.52244 8.25445 8.48489 7.49531 8.89905 6.45979L5.18509 4.97437C5.30943 4.66349 5.61656 4.39946 6.0272 4.36523L6.35952 8.3514ZM8.89905 6.4598L10.9279 1.38729L7.2139 -0.0981486L5.18509 4.97436L8.89905 6.4598Z" fill="#CF6F49" mask="url(#path-1-inside-1_12101_15)"/>
</svg>
